<?xml version="1.0" standalone="no"?>
<!DOCTYPE svg PUBLIC "-//W3C//DTD SVG 20010904//EN"
 "http://www.w3.org/TR/2001/REC-SVG-20010904/DTD/svg10.dtd">
<svg version="1.0" xmlns="http://www.w3.org/2000/svg"
 width="500.000000pt" height="500.000000pt" viewBox="0 0 500.000000 500.000000"
 preserveAspectRatio="xMidYMid meet">

<g transform="translate(0.000000,500.000000) scale(0.100000,-0.100000)"
fill="#000000" stroke="none">
<path d="M2445 4981 c-165 -26 -607 -211 -895 -374 -376 -214 -731 -496 -1120
-893 -287 -294 -393 -434 -405 -538 -27 -240 -6 -657 51 -1006 39 -242 141
-595 240 -830 171 -408 471 -898 667 -1088 55 -54 176 -97 394 -141 291 -58
587 -86 1068 -101 651 -21 1207 39 1449 155 152 74 321 263 491 550 279 473
503 1231 585 1985 24 218 25 474 2 500 -7 8 -40 55 -75 104 -87 125 -253 314
-436 496 -391 388 -715 622 -1216 875 -253 128 -332 164 -540 247 -163 65
-185 70 -260 59z m170 -87 c50 -19 99 -38 110 -43 11 -5 85 -38 165 -72 388
-168 791 -397 1050 -598 302 -234 669 -597 881 -871 114 -148 112 -144 111
-289 -5 -382 -102 -952 -243 -1426 -43 -143 -114 -348 -139 -400 -5 -11 -19
-45 -30 -75 -34 -87 -149 -316 -209 -415 -133 -219 -312 -425 -413 -476 -238
-120 -877 -188 -1516 -160 -611 26 -1024 83 -1284 178 -63 23 -71 30 -135 111
-126 159 -261 358 -352 516 -220 383 -367 767 -451 1181 -65 318 -74 420 -74
816 l-1 346 39 57 c147 214 556 624 901 903 317 256 670 465 1030 610 33 13
74 31 92 39 17 8 36 14 42 14 6 0 19 4 29 10 15 8 144 50 242 78 19 5 42 8 50
5 8 -3 56 -20 105 -39z"/>
<path d="M2480 4800 c-281 -62 -797 -300 -1100 -508 -375 -257 -832 -678
-1087 -1002 -105 -134 -97 -94 -96 -435 0 -349 18 -539 82 -855 23 -112 96
-367 131 -455 4 -11 27 -69 50 -130 120 -311 335 -680 568 -974 41 -53 76 -97
77 -99 8 -10 178 -63 275 -85 216 -50 364 -69 740 -97 485 -36 1000 -23 1355
35 152 24 181 31 305 73 152 51 330 243 502 542 111 194 185 363 291 670 45
128 126 435 153 575 9 44 22 112 30 150 13 70 45 273 65 415 15 110 27 387 20
446 -5 38 -19 68 -56 120 -141 200 -441 522 -678 726 -348 300 -666 498 -1161
722 -126 57 -425 179 -430 175 0 -1 -17 -5 -36 -9z m77 -41 c62 -26 90 -37
123 -49 19 -7 59 -24 88 -37 29 -12 55 -23 58 -23 3 0 26 -10 52 -21 486 -219
786 -398 1107 -658 248 -201 688 -664 801 -843 l26 -41 -5 -171 c-6 -188 -33
-433 -67 -616 -47 -250 -78 -385 -150 -655 -24 -90 -116 -352 -151 -432 -11
-23 -19 -45 -19 -48 0 -10 -134 -282 -173 -350 -105 -186 -294 -419 -382 -470
-95 -56 -261 -100 -504 -135 -126 -18 -507 -40 -696 -40 -434 0 -1027 56
-1295 121 -202 50 -240 71 -325 180 -202 260 -395 582 -504 839 -13 30 -34 78
-47 107 -13 28 -24 57 -24 62 0 6 -4 19 -10 29 -22 39 -97 282 -126 407 -80
348 -95 478 -101 892 l-5 331 35 54 c60 92 196 246 377 429 312 313 610 556
899 732 106 65 394 215 466 244 17 6 71 28 120 48 145 60 337 121 387 124 9 1
30 -4 45 -10z"/>
<path d="M2362 4424 c-33 -23 -31 -86 5 -113 30 -24 58 -20 86 11 24 28 21 65
-8 93 -28 29 -51 31 -83 9z m63 -20 c10 -10 15 -29 13 -48 -3 -27 -7 -31 -33
-31 -40 0 -58 44 -30 75 22 24 29 25 50 4z"/>
<path d="M2506 4433 c-3 -3 -6 -35 -6 -70 l0 -63 45 0 c25 0 45 5 45 10 0 6
-13 10 -30 10 -30 0 -30 1 -30 54 0 51 -9 74 -24 59z"/>
<path d="M2641 4411 c-27 -27 -28 -82 -3 -104 42 -38 112 -5 112 51 -1 59 -69
93 -109 53z m79 -50 c0 -56 -56 -69 -75 -17 -8 24 -6 31 14 47 31 25 61 10 61
-30z"/>
<path d="M2200 4388 c0 -50 12 -108 21 -108 5 0 9 19 9 43 l1 42 30 -37 c17
-21 35 -38 40 -38 5 0 9 29 9 65 0 51 -3 65 -15 65 -12 0 -14 -9 -9 -42 l5
-43 -38 43 c-21 23 -41 42 -45 42 -5 0 -8 -15 -8 -32z"/>
<path d="M2114 4374 l-28 -36 -9 26 c-5 14 -13 26 -19 26 -12 0 -2 -79 15
-119 l10 -26 6 34 c8 43 25 50 47 17 9 -14 23 -26 30 -26 22 0 17 14 -16 45
l-29 28 20 28 c30 42 5 45 -27 3z"/>
<path d="M2802 4393 c-20 -17 -27 -44 -24 -85 2 -17 49 -48 72 -48 13 0 50 37
50 50 0 16 -41 33 -53 21 -7 -7 -5 -12 6 -17 25 -9 21 -24 -6 -24 -47 0 -64
52 -27 85 18 17 21 17 46 1 33 -23 46 -10 15 15 -29 24 -53 24 -79 2z"/>
<path d="M2936 4326 c-19 -63 -20 -76 -6 -76 9 0 40 90 40 117 0 32 -20 8 -34
-41z"/>
<path d="M1950 4357 c-38 -13 -38 -14 -19 -90 13 -51 16 -52 92 -31 33 10 17
22 -23 17 -33 -5 -40 -3 -40 11 0 10 13 21 30 27 38 14 30 30 -9 19 -23 -6
-31 -5 -35 7 -9 22 -8 23 13 23 26 0 51 10 51 21 0 12 -17 11 -60 -4z"/>
<path d="M3047 4301 c-24 -68 -22 -76 19 -89 42 -13 66 -2 83 35 19 40 13 62
-21 83 -49 30 -61 26 -81 -29z m81 -11 c4 -38 -19 -64 -51 -56 l-25 6 16 40
c12 32 20 40 36 38 14 -2 22 -12 24 -28z"/>
<path d="M1813 4314 c-38 -16 -45 -37 -10 -29 20 5 25 0 41 -44 10 -28 22 -51
27 -51 13 0 11 26 -6 67 -8 19 -15 39 -15 44 0 5 7 9 15 9 8 0 15 5 15 10 0
14 -28 11 -67 -6z"/>
<path d="M3190 4240 c-40 -48 -49 -78 -15 -50 20 17 61 0 70 -29 12 -40 25
-21 25 38 0 107 -17 116 -80 41z m50 -10 c0 -11 -7 -20 -15 -20 -15 0 -21 21
-8 33 12 13 23 7 23 -13z"/>
<path d="M1658 4249 c-39 -19 -53 -45 -20 -35 15 5 23 -4 42 -44 13 -27 26
-50 30 -50 18 0 16 16 -8 62 -24 46 -24 51 -9 60 17 9 24 29 10 27 -5 -1 -25
-10 -45 -20z"/>
<path d="M3316 4195 c-30 -64 -31 -68 -18 -73 5 -1 16 14 25 35 16 40 21 36
32 -29 3 -22 12 -38 19 -38 12 0 56 88 56 111 0 22 -19 5 -33 -28 -16 -40 -21
-36 -32 29 -9 56 -21 54 -49 -7z"/>
<path d="M1538 4187 c-21 -12 -38 -26 -38 -30 0 -12 50 -96 61 -103 11 -6 89
36 89 48 0 14 -27 9 -40 -7 -15 -18 -36 -19 -46 -3 -4 6 5 21 21 34 35 28 27
42 -10 18 -21 -13 -28 -14 -38 -4 -9 9 -8 15 6 24 41 25 50 33 41 38 -5 4 -26
-4 -46 -15z"/>
<path d="M2468 4174 c-34 -18 -45 -57 -27 -90 9 -18 29 -29 70 -41 32 -9 61
-23 64 -31 16 -44 -71 -60 -99 -18 -11 17 -22 23 -36 19 -27 -7 -25 -19 9 -54
59 -58 171 -28 171 46 0 37 -31 75 -60 75 -36 0 -80 22 -80 40 0 34 51 40 77
10 23 -26 53 -26 53 0 0 24 -54 60 -90 60 -14 -1 -37 -7 -52 -16z"/>
<path d="M2214 4152 c-6 -4 -14 -27 -18 -52 -3 -25 -13 -79 -20 -120 -8 -41
-12 -78 -10 -82 10 -15 44 6 44 27 0 29 16 41 67 50 37 6 43 4 58 -19 18 -27
31 -31 53 -18 9 6 -6 37 -59 115 -68 102 -87 118 -115 99z m59 -94 c19 -33 16
-42 -20 -53 -22 -6 -23 -3 -23 39 0 55 17 60 43 14z"/>
<path d="M2830 4145 c0 -2 -13 -55 -30 -117 -16 -62 -27 -114 -25 -116 2 -2
38 -12 79 -22 72 -17 76 -17 106 1 32 20 40 54 19 88 -10 15 -8 22 10 40 24
24 25 30 12 64 -7 17 -24 28 -63 40 -70 21 -108 28 -108 22z m119 -70 c32 -31
-21 -59 -73 -39 -16 6 -22 45 -9 58 10 9 65 -3 82 -19z m-34 -87 c20 -9 25
-18 23 -37 -3 -24 -7 -26 -46 -25 -51 1 -67 14 -58 48 7 29 37 34 81 14z"/>
<path d="M3490 4098 c-16 -29 -30 -56 -30 -60 0 -15 19 -8 29 9 8 15 14 16 40
6 26 -9 34 -8 52 6 27 22 19 51 -20 74 -16 9 -32 17 -35 17 -3 0 -19 -24 -36
-52z m68 10 c16 -16 15 -38 0 -38 -23 0 -41 18 -35 34 8 19 19 20 35 4z"/>
<path d="M1412 4107 c-37 -39 -8 -76 44 -57 28 11 44 6 44 -15 0 -17 -22 -25
-49 -18 -24 6 -29 -14 -6 -23 45 -18 96 28 74 67 -9 18 -17 20 -55 14 -27 -4
-44 -2 -44 4 0 14 22 26 44 22 11 -2 17 2 14 11 -8 22 -43 20 -66 -5z"/>
<path d="M2075 4125 c-5 -2 -37 -11 -70 -21 -85 -25 -99 -32 -85 -49 9 -10 18
-11 41 -3 17 6 32 8 35 6 2 -3 15 -44 28 -91 28 -103 31 -107 57 -100 23 6 23
3 -15 126 -24 74 -24 77 -6 87 10 6 26 10 35 10 10 0 15 7 13 17 -3 17 -16 24
-33 18z"/>
<path d="M3601 4020 c-37 -54 -36 -61 18 -93 24 -14 31 -15 31 -4 0 7 -11 20
-25 27 -27 15 -29 18 -16 39 7 11 13 10 35 -4 37 -25 44 -11 10 19 -26 22 -27
25 -11 31 11 5 25 1 36 -9 18 -17 41 -21 41 -8 0 8 -65 52 -77 52 -5 0 -23
-22 -42 -50z"/>
<path d="M1336 4052 c-2 -4 14 -32 36 -61 28 -36 43 -50 51 -42 7 7 -3 26 -33
60 -44 54 -46 55 -54 43z"/>
<path d="M3110 4050 c0 -5 -21 -53 -46 -106 -37 -77 -44 -98 -33 -105 25 -16
32 -9 73 76 2 6 16 -3 30 -18 18 -19 26 -39 26 -65 0 -43 7 -55 37 -71 22 -11
23 -11 16 36 -3 27 -10 56 -14 65 -13 25 -12 27 22 26 37 -1 59 22 59 63 0 35
-20 55 -86 85 -56 25 -84 30 -84 14z m79 -54 c42 -22 56 -43 41 -61 -17 -20
-39 -19 -77 5 -30 18 -32 22 -21 45 13 29 19 30 57 11z"/>
<path d="M1831 4041 c-11 -7 -11 -17 4 -57 10 -27 22 -53 25 -59 4 -5 15 -34
25 -62 14 -38 24 -53 37 -53 22 0 33 23 22 42 -5 7 -25 53 -45 102 -37 92 -44
102 -68 87z"/>
<path d="M1248 3981 l-32 -29 38 -46 c20 -25 44 -46 52 -46 18 0 18 14 -1 30
-27 22 -16 32 32 28 31 -2 48 1 50 10 3 8 -6 12 -26 12 -26 0 -31 4 -31 23 0
25 -17 47 -37 47 -7 0 -27 -13 -45 -29z m57 -10 c6 -10 -21 -41 -35 -41 -16 0
-22 21 -10 35 14 17 36 20 45 6z"/>
<path d="M3710 3939 c-47 -56 -47 -78 1 -33 l31 29 -4 -52 c-1 -29 1 -54 6
-55 12 -4 91 90 83 99 -4 4 -21 -7 -38 -23 l-30 -29 6 51 c4 30 3 54 -3 57 -5
4 -28 -16 -52 -44z"/>
<path d="M1655 3952 c-43 -27 -58 -49 -57 -83 1 -42 27 -61 77 -54 96 13 110
12 110 -13 0 -34 -48 -61 -76 -44 -16 10 -24 10 -35 1 -21 -17 -17 -28 13 -40
40 -15 85 -3 121 32 37 37 40 66 10 104 -23 29 -17 29 -139 9 -47 -8 -61 12
-28 38 15 13 32 18 50 14 15 -3 34 1 44 8 17 12 16 14 -6 29 -30 22 -47 21
-84 -1z"/>
<path d="M3340 3824 c-52 -35 -96 -67 -98 -72 -1 -5 4 -15 13 -22 13 -11 19
-10 33 4 24 21 31 21 76 -10 34 -23 37 -29 32 -59 -5 -23 -2 -36 10 -45 13
-12 17 -11 25 1 5 8 9 22 9 31 0 9 4 27 9 40 5 13 17 56 26 96 13 57 14 76 5
88 -20 23 -39 15 -140 -52z m95 -11 c-3 -10 -9 -30 -12 -45 -7 -33 -13 -34
-44 -8 -20 17 -22 21 -9 29 8 5 24 17 35 25 27 20 39 20 30 -1z"/>
<path d="M3821 3846 c-38 -39 -41 -46 -30 -64 7 -12 24 -27 37 -34 29 -15 69
3 91 44 14 24 13 28 -13 62 -15 20 -30 36 -34 36 -5 0 -27 -20 -51 -44z m79
-24 c0 -24 -30 -52 -56 -52 -37 0 -38 20 -3 56 25 26 36 31 46 23 7 -6 13 -18
13 -27z"/>
<path d="M1130 3872 c0 -5 11 -19 25 -32 14 -13 25 -26 25 -30 0 -4 -21 -3
-47 1 -27 4 -52 4 -56 0 -8 -8 76 -91 93 -91 18 0 10 19 -15 36 -39 25 -30 33
30 27 30 -3 55 -2 55 2 0 10 -92 94 -102 95 -5 0 -8 -4 -8 -8z"/>
<path d="M1399 3753 l-60 -57 88 -88 c67 -67 90 -85 100 -76 20 16 16 32 -17
63 -35 34 -37 41 -11 54 13 7 36 7 75 -1 50 -11 58 -10 74 5 15 16 15 19 2 27
-14 9 -56 15 -92 12 -13 -1 -15 6 -11 37 4 30 1 43 -16 60 -35 35 -66 27 -132
-36z m109 -18 c2 -12 -9 -32 -27 -49 -30 -29 -31 -29 -51 -11 -26 24 -25 31 7
61 31 29 67 28 71 -1z"/>
<path d="M3915 3740 c-27 -28 -43 -50 -35 -50 17 1 100 76 100 90 0 19 -17 9
-65 -40z"/>
<path d="M3536 3682 c-36 -55 -66 -103 -66 -107 0 -3 7 -14 16 -23 15 -15 23
-12 96 27 44 24 81 41 83 39 2 -2 -16 -36 -41 -76 -49 -80 -50 -85 -30 -101
16 -14 47 0 169 72 61 36 67 42 53 55 -12 13 -20 13 -38 4 -41 -21 -87 -49
-103 -62 -33 -28 -25 2 19 69 l47 70 -21 21 -22 22 -70 -41 c-39 -23 -73 -39
-75 -37 -3 2 14 32 37 66 40 59 47 89 24 97 -7 2 -42 -41 -78 -95z"/>
<path d="M1012 3738 c-8 -8 -2 -28 20 -69 29 -57 56 -80 45 -39 -7 28 24 60
53 53 16 -4 21 -2 18 7 -6 19 -123 61 -136 48z m68 -48 c0 -16 -22 -23 -31 -9
-16 26 -11 41 11 29 11 -6 20 -15 20 -20z"/>
<path d="M3962 3703 c-28 -21 -52 -43 -52 -49 0 -16 54 -64 72 -64 26 0 78 49
78 73 -1 12 -11 34 -23 50 l-23 27 -52 -37z m66 -15 c19 -19 14 -35 -19 -59
l-31 -22 -20 21 -21 20 29 26 c33 29 45 31 62 14z"/>
<path d="M945 3650 c-3 -5 17 -26 44 -45 52 -37 64 -42 68 -28 4 13 -105 85
-112 73z"/>
<path d="M1284 3632 c-19 -14 -104 -119 -104 -130 0 -5 24 -29 53 -53 28 -23
68 -58 89 -77 l36 -34 24 28 c12 15 41 47 62 71 35 39 38 46 24 59 -13 14 -19
10 -57 -35 -24 -28 -46 -51 -51 -51 -4 0 -18 8 -31 19 l-23 18 37 45 c20 25
37 50 37 56 0 25 -27 15 -59 -22 -36 -44 -58 -51 -74 -25 -8 14 -2 27 31 67
33 39 39 52 29 60 -7 6 -17 8 -23 4z"/>
<path d="M4052 3588 c-28 -18 -52 -38 -52 -45 0 -7 2 -13 5 -13 15 0 114 74
109 81 -7 12 -2 14 -62 -23z"/>
<path d="M880 3554 l-23 -37 22 -16 c40 -30 91 -54 98 -47 4 4 -3 15 -16 25
-28 21 -21 41 14 41 31 0 55 10 55 22 0 6 -15 8 -35 6 -28 -3 -35 0 -37 17 -2
13 -12 21 -29 23 -21 3 -31 -4 -49 -34z m57 0 c8 -21 -23 -52 -38 -37 -8 8 -7
17 3 32 15 25 26 27 35 5z"/>
<path d="M4080 3539 c-58 -39 -63 -52 -16 -44 40 8 47 -5 21 -39 -18 -24 -19
-36 -2 -36 7 0 21 16 30 36 16 32 20 35 48 29 47 -11 32 17 -17 31 -37 10 -38
11 -16 23 24 13 30 31 10 31 -7 0 -33 -14 -58 -31z"/>
<path d="M2408 3493 c6 -2 18 -2 25 0 6 3 1 5 -13 5 -14 0 -19 -2 -12 -5z"/>
<path d="M2493 3493 c15 -2 37 -2 50 0 12 2 0 4 -28 4 -27 0 -38 -2 -22 -4z"/>
<path d="M3815 3474 c-16 -14 -58 -47 -91 -73 -55 -42 -60 -49 -49 -65 16 -21
16 -22 123 63 50 39 82 71 80 80 -5 25 -30 23 -63 -5z"/>
<path d="M817 3451 c-9 -16 -17 -36 -17 -43 0 -17 95 -72 109 -64 18 11 50 76
40 81 -5 4 -17 -7 -27 -24 -19 -34 -21 -35 -41 -22 -12 8 -12 13 3 36 20 31
11 50 -9 21 -8 -10 -16 -24 -18 -29 -2 -6 -11 -8 -21 -4 -16 7 -16 9 4 42 16
26 18 35 8 35 -8 0 -21 -13 -31 -29z"/>
<path d="M2652 3415 c12 -25 25 -45 29 -45 4 0 16 -15 27 -34 18 -30 21 -53
21 -175 1 -84 -3 -142 -9 -146 -5 -3 -10 -17 -10 -31 0 -30 -58 -154 -71 -154
-21 0 -22 33 -1 49 14 11 23 36 31 86 7 39 14 82 17 98 4 15 2 27 -3 27 -14 0
-56 -56 -70 -94 l-12 -31 1 35 c1 20 -2 41 -6 48 -5 8 0 12 13 12 11 0 27 12
37 29 10 17 21 28 24 26 4 -2 7 16 7 40 0 34 -4 45 -19 48 -11 3 -18 14 -18
30 0 29 -28 57 -58 57 -12 0 -22 5 -22 11 0 5 -15 16 -34 24 -18 8 -36 21 -39
30 -4 8 -16 15 -27 15 -17 0 -20 -4 -15 -20 4 -14 1 -22 -12 -27 -10 -4 -21
-11 -25 -17 -5 -7 -8 -4 -8 7 0 21 -18 23 -26 2 -3 -8 -14 -17 -25 -20 -30
-10 -23 -28 8 -20 23 5 25 4 14 -9 -8 -9 -26 -16 -42 -16 -16 0 -29 -4 -29
-10 0 -5 4 -10 9 -10 5 0 7 -9 4 -21 -7 -27 16 -43 37 -25 8 8 38 17 66 21 41
5 54 3 68 -10 23 -24 20 -34 -10 -32 -33 2 -43 -18 -13 -26 32 -8 13 -27 -27
-27 -21 0 -33 -4 -29 -10 3 -5 24 -10 46 -10 39 0 52 -13 24 -24 -10 -4 -15
-19 -15 -49 0 -24 -4 -47 -10 -53 -13 -13 7 -83 27 -91 9 -3 25 0 37 7 21 13
21 13 2 -9 -21 -23 -82 -29 -116 -11 -14 8 -25 7 -40 -2 -16 -10 -24 -10 -40
0 -22 13 -27 3 -8 -16 14 -14 -13 -27 -42 -19 -24 6 -29 -28 -5 -37 8 -3 15
-14 15 -25 0 -13 9 -20 30 -23 l30 -5 -27 29 c-30 31 -24 49 10 29 18 -11 20
-11 10 0 -17 17 -16 29 2 29 8 0 20 -9 27 -20 7 -11 17 -20 22 -20 5 0 2 8 -7
18 -29 32 -15 62 20 43 10 -6 34 -17 55 -26 20 -9 38 -25 41 -36 3 -11 10 -18
15 -17 13 4 82 -72 82 -89 0 -7 4 -13 9 -13 5 0 11 6 14 13 2 6 8 -4 11 -24 6
-27 3 -44 -14 -72 -12 -20 -20 -44 -17 -54 3 -13 13 0 33 40 16 32 33 67 39
78 5 10 13 19 17 19 10 0 -1 -103 -12 -114 -16 -16 -12 -76 5 -76 18 0 20 -16
4 -26 -6 -3 -15 -1 -19 6 -6 9 -13 8 -29 -6 -11 -10 -21 -24 -21 -31 0 -7 -7
-13 -16 -13 -14 0 -16 7 -11 45 7 51 -10 64 -19 15 -8 -40 -27 -55 -44 -35
-15 19 -1 72 37 144 28 51 28 92 0 50 -10 -15 -27 -53 -38 -85 -26 -76 -39
-89 -39 -41 0 20 -5 37 -11 37 -6 0 -8 -7 -5 -16 3 -9 6 -64 7 -122 0 -107 0
-107 16 -69 16 40 36 45 41 10 5 -31 -44 -83 -78 -83 -16 0 -31 4 -35 10 -3 5
-12 7 -20 3 -8 -3 -15 0 -15 6 0 6 -9 11 -21 11 -11 0 -17 -4 -14 -10 3 -5 2
-10 -3 -10 -17 0 -45 71 -33 83 8 8 11 6 11 -6 0 -19 15 -23 25 -7 3 6 14 10
24 10 10 0 26 11 35 25 9 14 12 25 6 25 -5 0 -10 -5 -10 -10 0 -7 -38 -10
-107 -8 l-108 3 -3 63 c-3 66 6 76 39 46 9 -8 28 -14 41 -12 21 3 19 5 -15 22
-21 10 -51 38 -68 62 -39 58 -45 59 -41 12 5 -49 -3 -58 -61 -64 l-46 -4 -7
45 c-3 25 -4 58 -2 75 3 16 1 30 -4 30 -4 0 -8 -40 -8 -90 0 -85 1 -90 21 -90
15 0 19 -4 15 -16 -3 -9 -6 -20 -6 -25 0 -5 -7 -9 -15 -9 -8 0 -15 5 -15 11 0
6 -7 17 -15 25 -8 9 -18 27 -21 42 -3 15 -10 37 -16 49 -8 16 -8 26 0 35 5 7
12 26 14 42 2 20 12 34 35 46 43 23 63 40 63 54 0 6 -4 4 -10 -4 -5 -8 -12
-11 -15 -8 -4 4 -3 13 1 20 5 7 16 33 25 58 10 30 21 44 31 42 16 -2 22 16 34
116 5 33 3 42 -9 42 -8 0 -18 -7 -21 -16 -5 -12 -14 -15 -35 -11 -19 4 -33 1
-41 -8 -7 -8 -21 -15 -31 -15 -11 0 -19 -4 -19 -8 0 -16 49 -66 56 -59 4 4 -1
13 -11 21 -21 15 -15 46 9 46 33 0 66 -20 66 -40 0 -11 -7 -20 -15 -20 -8 0
-15 -9 -15 -19 0 -11 -6 -32 -14 -48 -7 -15 -22 -46 -32 -68 -21 -43 -54 -60
-54 -27 0 12 -9 22 -22 26 -26 6 -50 -10 -32 -22 7 -4 15 -25 18 -47 6 -33 3
-46 -15 -69 -16 -20 -19 -30 -10 -39 18 -18 13 -27 -18 -27 -37 0 -49 -17 -27
-38 15 -15 16 -15 16 1 0 21 16 22 24 1 8 -20 -1 -34 -20 -34 -8 0 -14 -5 -14
-11 0 -6 -7 -8 -16 -5 -11 4 -14 1 -12 -12 3 -13 14 -17 53 -17 45 0 51 -3 72
-34 13 -18 30 -39 39 -46 18 -12 24 -91 9 -115 -6 -10 -4 -12 10 -7 9 4 24 2
31 -4 18 -15 18 2 -1 27 -8 11 -14 41 -15 72 0 50 1 52 28 52 15 0 34 6 41 13
10 10 15 8 27 -8 8 -11 12 -26 9 -33 -4 -10 -1 -12 12 -6 35 15 113 17 116 2
2 -7 9 -28 15 -47 15 -43 2 -61 -44 -61 -35 0 -64 -21 -64 -47 0 -14 2 -14 19
2 31 27 120 24 236 -9 55 -16 114 -31 132 -34 18 -2 38 -10 44 -18 6 -8 18
-14 25 -14 8 0 14 -11 14 -26 l0 -26 -97 4 c-77 2 -108 8 -144 26 -25 12 -59
22 -75 21 -26 -1 -26 -2 10 -10 21 -5 52 -20 68 -34 16 -14 38 -25 48 -25 10
0 21 -6 24 -12 5 -10 7 -10 12 0 8 17 61 15 67 -2 6 -16 -19 -30 -28 -16 -4 6
-14 5 -25 -2 -15 -10 -26 -8 -55 8 -31 16 -37 17 -45 4 -6 -10 -4 -17 5 -23 8
-4 15 -15 15 -22 0 -17 16 -20 25 -5 9 14 45 13 45 -2 0 -6 6 -3 14 7 12 16
18 17 39 8 15 -7 28 -8 34 -2 13 13 43 0 43 -18 0 -11 -7 -13 -26 -9 -18 5
-32 2 -46 -11 -22 -20 -124 -23 -162 -5 -106 50 -138 59 -123 35 3 -4 37 -24
76 -43 38 -19 76 -45 82 -57 7 -13 20 -23 29 -23 10 0 23 -7 30 -15 10 -12 8
-17 -11 -25 -20 -8 -20 -9 -4 -8 11 2 26 -1 34 -6 8 -5 16 -4 22 5 6 11 11 11
20 2 9 -9 9 -16 -1 -28 -15 -18 -51 -20 -68 -3 -9 9 -12 8 -12 -6 0 -16 -6
-18 -36 -13 -20 4 -47 15 -59 27 -27 25 -38 26 -30 0 5 -15 2 -20 -13 -20 -18
0 -20 7 -19 62 0 43 -3 63 -13 66 -10 4 -12 -24 -8 -144 3 -82 10 -160 16
-174 6 -17 6 -33 -1 -48 -8 -17 -8 -25 2 -31 7 -5 10 -18 6 -33 -5 -18 -2 -27
9 -31 9 -4 16 -17 16 -29 1 -36 54 -180 65 -176 6 1 9 8 8 13 -5 23 -21 81
-28 98 -7 16 -3 18 26 15 l34 -3 -3 -65 c-2 -35 -7 -69 -12 -76 -6 -6 -7 -14
-4 -17 13 -13 14 -90 2 -106 -12 -14 -11 -14 5 -2 14 11 21 11 29 3 19 -19 30
-14 19 7 -6 10 -9 38 -6 60 2 23 -1 69 -6 102 -14 85 -8 96 46 97 l44 0 3 -44
c2 -24 8 -44 13 -44 6 0 10 66 10 178 0 205 1 215 16 188 8 -12 9 -46 5 -97
-6 -62 -4 -84 9 -109 17 -34 17 -56 -3 -205 -6 -40 -6 -77 -1 -86 11 -22 49
-32 49 -13 0 8 5 14 11 14 7 0 9 12 4 36 -5 31 -4 36 10 31 22 -9 33 23 12 38
-14 10 -14 15 -1 39 7 16 14 35 14 44 0 13 3 13 19 -2 18 -16 19 -16 23 21 3
21 0 51 -5 67 -7 20 -7 34 2 47 6 10 11 28 11 38 0 11 5 23 11 27 6 3 9 15 6
25 -3 12 2 23 14 30 21 11 39 5 39 -13 0 -6 6 -19 13 -27 10 -13 12 -42 5
-136 -14 -224 -16 -239 -38 -257 -17 -14 -19 -21 -11 -37 17 -31 13 -39 -21
-44 -29 -3 -27 -4 10 -5 38 -2 42 0 42 22 0 14 9 31 20 39 20 14 20 21 14 123
-7 98 -6 108 8 96 14 -11 17 -6 20 49 1 33 0 63 -4 66 -11 6 -10 113 0 113 5
0 9 21 10 46 0 25 5 51 11 57 6 6 11 35 11 64 0 39 4 53 14 53 16 0 28 98 14
116 -5 7 -7 41 -6 77 3 67 -6 93 -22 67 -6 -8 -10 -10 -10 -4 0 6 7 17 15 24
9 7 15 35 17 73 l3 62 34 5 c34 5 36 8 67 95 18 50 33 100 33 113 1 12 19 61
42 107 33 70 45 86 67 91 15 3 57 14 94 25 59 18 71 26 104 69 29 38 45 50 65
50 15 0 29 7 33 15 3 8 12 15 21 15 8 0 15 7 15 15 0 8 5 24 12 35 10 15 9 24
-2 44 -15 29 -30 34 -30 11 0 -8 -7 -15 -16 -15 -10 0 -14 -6 -10 -15 3 -8 -2
-31 -10 -51 -15 -35 -16 -35 -39 -20 -13 9 -39 16 -56 16 -27 0 -30 -2 -19
-15 10 -12 10 -18 0 -30 -18 -22 -3 -18 23 5 34 32 32 5 -3 -38 -31 -39 -38
-44 -113 -77 -40 -17 -62 -12 -52 12 3 10 -3 22 -15 30 -27 19 -25 31 5 45 20
9 25 19 25 45 0 29 5 36 35 49 34 14 35 16 35 67 -1 28 -8 79 -16 112 -9 33
-20 79 -26 103 -7 32 -14 42 -26 40 -11 -2 -16 -11 -13 -23 2 -11 6 -47 8 -80
3 -33 8 -62 12 -65 5 -3 11 -31 14 -62 6 -50 5 -57 -12 -63 -13 -4 -28 3 -46
19 -27 25 -44 30 -132 40 -37 3 -43 1 -43 -14 0 -17 6 -18 48 -14 76 9 149
-31 125 -68 -4 -7 -8 -22 -8 -33 0 -17 -8 -20 -47 -23 -31 -2 -56 3 -72 13
-23 15 -24 15 -20 -3 6 -22 62 -58 86 -54 18 3 38 -26 38 -56 0 -10 -11 -28
-24 -40 -14 -11 -30 -39 -37 -61 -13 -42 -39 -56 -39 -21 0 11 -5 20 -11 20
-7 0 -9 -11 -6 -30 6 -29 -7 -52 -16 -28 -3 10 -9 9 -21 -3 -22 -20 -11 -52
15 -44 30 10 33 -33 6 -95 -13 -30 -27 -68 -31 -85 -8 -33 -23 -55 -38 -55
-11 0 -48 85 -48 111 0 11 -10 23 -24 29 -29 11 -39 25 -41 62 -2 18 2 28 11
28 7 0 11 -6 8 -14 -3 -9 6 -15 27 -20 37 -7 60 7 41 26 -7 7 -13 49 -14 108
-1 66 -3 77 -5 38 -5 -68 -23 -79 -23 -14 0 24 -3 59 -6 77 -4 24 -3 30 4 20
8 -11 12 -10 21 7 8 16 7 21 -5 26 -28 11 -42 6 -47 -14 -3 -11 -21 -27 -41
-35 -19 -8 -39 -22 -44 -32 -9 -14 -11 -14 -21 5 -7 12 -18 22 -27 22 -23 0
-38 43 -25 69 15 28 30 19 23 -14 -6 -33 14 -33 22 0 4 14 11 25 16 25 6 0 10
5 10 11 0 6 -9 8 -20 4 -15 -5 -20 -2 -20 13 0 26 11 34 27 20 17 -14 31 -2
15 14 -18 18 -15 38 6 39 9 0 4 4 -11 9 -40 12 -59 3 -46 -21 6 -13 6 -19 0
-19 -16 0 -33 38 -21 45 5 3 10 15 10 26 0 11 9 48 20 82 15 46 21 100 24 208
5 161 4 165 -61 251 -48 63 -71 64 -41 3z m-232 -174 c0 -12 -20 -25 -27 -18
-7 7 6 27 18 27 5 0 9 -4 9 -9z m138 -272 c2 -23 -2 -40 -12 -49 -14 -11 -16
-9 -16 16 0 16 -3 40 -7 53 -5 19 -2 22 13 19 14 -2 20 -13 22 -39z m296 -382
c9 -51 0 -67 -41 -67 -26 0 -36 5 -40 19 -3 11 -17 21 -36 25 -28 6 -30 8 -14
17 13 8 22 7 33 -1 11 -10 14 -10 14 1 0 7 10 23 21 35 28 30 54 17 63 -29z
m-129 13 c3 -5 1 -10 -4 -10 -6 0 -11 5 -11 10 0 6 2 10 4 10 3 0 8 -4 11 -10z
m24 -99 c16 -10 6 -31 -15 -31 -8 0 -14 9 -14 20 0 22 7 25 29 11z m-612 -66
c-1 -20 -6 -34 -11 -32 -6 2 -24 0 -40 -4 -27 -8 -28 -7 -12 10 9 9 16 22 16
27 0 14 22 34 36 34 7 0 12 -14 11 -35z m-207 15 c0 -5 -10 -10 -22 -10 -19 0
-20 2 -8 10 19 13 30 13 30 0z m860 -47 c0 -15 -10 -28 -30 -38 -34 -18 -41
-4 -15 31 8 10 15 30 15 44 1 24 1 24 15 6 8 -11 15 -30 15 -43z m40 27 c0 -5
-4 -10 -10 -10 -5 0 -10 5 -10 10 0 6 5 10 10 10 6 0 10 -4 10 -10z m-312 -22
c17 -17 15 -38 -3 -38 -12 0 -35 28 -35 44 0 11 26 6 38 -6z m118 -51 c4 -3
-1 -9 -10 -13 -9 -3 -16 -12 -16 -20 0 -8 -4 -14 -10 -14 -5 0 -10 6 -10 14 0
8 -3 22 -6 31 -5 13 -1 15 19 13 15 -2 29 -7 33 -11z m215 -22 c10 -16 18 -46
18 -66 1 -20 8 -42 16 -49 10 -8 15 -31 15 -67 0 -59 -8 -67 -67 -67 -38 0
-45 -15 -8 -17 14 -1 30 -3 35 -4 6 -1 15 -3 20 -4 6 0 10 -8 10 -17 0 -13 -3
-14 -13 -5 -8 6 -17 8 -20 4 -11 -11 -8 -63 4 -63 19 0 48 -44 49 -75 0 -16 4
-36 8 -43 16 -24 2 -70 -23 -76 -38 -10 -75 10 -75 39 0 14 -4 25 -10 25 -5 0
-10 14 -10 30 0 17 -4 30 -10 30 -5 0 -10 -13 -10 -30 0 -16 -4 -30 -9 -30
-14 0 -20 40 -10 67 5 13 9 40 9 60 0 27 -3 34 -15 29 -8 -3 -15 0 -16 7 0 7
-2 36 -4 64 -2 29 1 55 6 58 5 4 9 17 9 29 0 19 -4 22 -25 18 -14 -2 -28 -8
-31 -13 -9 -15 -102 -10 -182 10 -43 10 -90 22 -105 25 -16 4 -25 11 -21 17 3
6 18 8 33 5 78 -19 182 -36 221 -36 49 0 70 13 70 42 0 10 5 18 11 18 8 0 10
14 6 39 -4 34 -3 38 14 34 11 -3 19 0 19 7 0 18 32 40 54 37 11 -1 27 -15 37
-32z m-171 -5 c0 -13 -40 -53 -47 -47 -6 7 27 57 38 57 5 0 9 -4 9 -10z m-109
-43 c-13 -13 -26 -3 -16 12 3 6 11 8 17 5 6 -4 6 -10 -1 -17z m49 -22 c0 -8
-7 -15 -15 -15 -16 0 -20 12 -8 23 11 12 23 8 23 -8z m-60 -10 c0 -8 -7 -15
-15 -15 -16 0 -20 12 -8 23 11 12 23 8 23 -8z m94 -223 c2 -4 1 -14 -4 -22 -7
-11 -14 -12 -34 -2 -14 6 -26 16 -26 22 0 12 57 14 64 2z m56 -9 c-1 -13 -40
-56 -46 -50 -7 7 25 57 37 57 5 0 9 -3 9 -7z m180 -13 c0 -5 -7 -10 -15 -10
-8 0 -15 5 -15 10 0 6 7 10 15 10 8 0 15 -4 15 -10z m-287 -169 c1 -41 -3 -70
-8 -68 -6 1 -9 34 -8 72 2 84 2 80 9 72 4 -3 7 -38 7 -76z m-55 35 c17 -37 -1
-50 -28 -21 -17 18 -30 23 -47 19 -16 -4 -23 -2 -23 8 0 11 13 15 44 15 36 1
45 -3 54 -21z m329 -133 c3 -7 -5 -20 -16 -29 -11 -10 -17 -22 -14 -27 3 -5
-1 -13 -8 -18 -11 -7 -10 -9 4 -9 14 0 16 -6 11 -27 -12 -55 -14 -60 -25 -41
-5 10 -17 14 -29 11 -17 -4 -20 0 -20 25 0 17 6 32 15 36 10 4 13 14 9 35 -10
47 1 63 38 59 17 -2 33 -8 35 -15z m-327 -22 c0 -14 -41 -21 -130 -21 -83 0
-118 9 -107 26 6 11 237 6 237 -5z m0 -50 c0 -19 -115 -27 -192 -15 -74 13
-36 24 77 24 63 0 115 -4 115 -9z m-186 -41 c25 -9 26 -14 26 -80 0 -55 -3
-72 -16 -77 -8 -3 -19 -2 -23 3 -8 9 -23 164 -16 164 2 0 15 -4 29 -10z m194
-87 c-2 -42 -8 -68 -15 -71 -10 -3 -13 17 -13 76 0 43 3 82 7 86 14 14 24 -26
21 -91z m-113 2 c0 -73 -2 -80 -20 -80 -18 0 -20 8 -23 83 -3 82 -2 83 20 80
22 -3 23 -7 23 -83z m63 11 c3 -66 -9 -103 -29 -90 -5 3 -9 41 -9 85 0 71 2
80 18 77 14 -3 18 -16 20 -72z m43 -121 c-1 -12 -168 -19 -190 -8 -10 4 21 10
74 14 111 7 116 6 116 -6z m9 -43 c0 -5 -10 -12 -22 -16 -48 -12 -173 -2 -163
13 6 11 185 14 185 3z"/>
<path d="M2760 2247 c0 -21 12 -28 27 -16 19 16 16 29 -7 29 -11 0 -20 -6 -20
-13z"/>
<path d="M2810 2029 c0 -5 5 -7 10 -4 6 3 10 8 10 11 0 2 -4 4 -10 4 -5 0 -10
-5 -10 -11z"/>
<path d="M2810 1963 c1 -34 2 -36 14 -20 8 10 12 27 9 37 -9 33 -23 22 -23
-17z"/>
<path d="M1117 3413 c-17 -16 -3 -42 55 -100 34 -34 60 -64 57 -67 -2 -2 -31
1 -64 7 -101 18 -130 16 -133 -10 -3 -20 1 -23 30 -23 18 0 51 -4 73 -9 22 -5
66 -12 97 -16 55 -6 57 -6 64 19 5 22 -6 39 -76 116 -82 89 -91 96 -103 83z"/>
<path d="M4127 3403 c-30 -5 -32 -25 -3 -29 27 -4 30 -11 29 -57 l-2 -42 49
55 c27 30 48 60 46 65 -3 11 -73 15 -119 8z m83 -21 c0 -4 -5 -13 -12 -20 -18
-18 -28 -15 -28 8 0 13 7 20 20 20 11 0 20 -4 20 -8z"/>
<path d="M751 3318 c-18 -43 -10 -65 12 -34 11 15 16 15 54 -4 46 -22 63 -25
63 -11 0 5 -23 18 -51 30 -41 18 -49 25 -44 41 12 39 -16 20 -34 -22z"/>
<path d="M2872 3308 c-16 -16 -15 -39 2 -60 14 -20 36 -24 36 -8 0 6 -7 10
-15 10 -9 0 -15 9 -15 25 0 16 6 25 15 25 8 0 15 -4 15 -10 0 -5 7 -10 15 -10
8 0 15 7 15 16 0 10 -6 14 -15 11 -8 -4 -17 -2 -20 3 -8 13 -19 12 -33 -2z"/>
<path d="M3758 3309 c-29 -17 -24 -84 8 -114 15 -14 33 -25 40 -25 8 0 54 19
104 43 61 28 90 47 90 59 0 31 -19 29 -99 -12 -44 -22 -88 -40 -96 -40 -21 0
-31 29 -17 51 11 17 7 49 -7 49 -3 0 -14 -5 -23 -11z"/>
<path d="M2084 3298 c-4 -6 -2 -14 4 -16 14 -4 16 -108 3 -117 -6 -3 -20 -26
-32 -51 -13 -25 -28 -43 -35 -40 -8 3 -13 -10 -16 -40 -2 -24 -2 -44 0 -44 1
0 11 6 23 13 17 10 22 9 35 -7 19 -27 31 -12 14 19 -15 28 -2 71 31 101 31 28
25 194 -7 194 -7 0 -16 -5 -20 -12z m-44 -248 c0 -5 -5 -10 -11 -10 -5 0 -7 5
-4 10 3 6 8 10 11 10 2 0 4 -4 4 -10z"/>
<path d="M4223 3287 c-52 -22 -68 -37 -37 -37 8 0 24 5 36 11 31 17 33 4 4
-34 -29 -38 -33 -57 -12 -57 20 0 104 39 112 52 7 11 3 10 -65 -9 -24 -6 -23
-5 8 35 18 22 30 45 26 51 -8 14 -11 14 -72 -12z"/>
<path d="M3016 3284 c-5 -12 -2 -15 10 -10 8 3 18 6 20 6 3 0 2 5 -1 10 -9 15
-22 12 -29 -6z"/>
<path d="M2035 3270 c7 -22 -29 -50 -68 -54 -34 -4 -62 -22 -48 -30 7 -4 18
-2 26 4 8 7 22 9 31 6 9 -4 23 -1 31 5 10 9 17 9 25 1 7 -7 19 -12 27 -12 11
0 8 5 -7 16 -20 14 -22 18 -9 33 26 30 27 39 6 44 -16 4 -19 2 -14 -13z"/>
<path d="M1955 3267 c-4 -10 -3 -23 4 -30 16 -16 23 -3 12 24 -8 22 -10 22
-16 6z"/>
<path d="M1893 3255 c-3 -9 -3 -19 1 -22 3 -4 6 -1 6 5 0 7 7 12 16 12 8 0 12
5 9 10 -9 15 -25 12 -32 -5z"/>
<path d="M2943 3255 c-18 -20 -16 -28 3 -21 25 10 85 -15 82 -34 -4 -19 -69
-26 -100 -9 -18 9 -21 9 -11 -1 6 -7 22 -18 35 -24 30 -16 27 -46 -13 -110
-23 -37 -27 -52 -18 -60 8 -8 13 -8 16 1 2 7 15 28 28 47 13 20 30 55 36 78 7
24 18 50 25 58 6 8 15 26 19 39 6 21 5 23 -17 18 -17 -5 -29 -1 -41 13 -20 23
-28 24 -44 5z"/>
<path d="M2230 3234 c0 -13 3 -14 13 -5 8 6 17 8 20 4 4 -3 7 -1 7 5 0 7 -9
12 -20 12 -12 0 -20 -7 -20 -16z"/>
<path d="M2665 3240 c3 -5 11 -10 16 -10 6 0 7 5 4 10 -3 6 -11 10 -16 10 -6
0 -7 -4 -4 -10z"/>
<path d="M712 3228 c3 -7 19 -17 36 -22 31 -9 44 -26 20 -26 -26 0 -88 -21
-88 -30 0 -8 100 -50 121 -50 23 0 0 25 -30 33 -40 10 -34 18 21 32 23 6 43
15 45 20 2 6 -23 20 -55 33 -67 25 -75 27 -70 10z"/>
<path d="M2280 3214 c0 -8 5 -12 10 -9 6 4 8 11 5 16 -9 14 -15 11 -15 -7z"/>
<path d="M2230 3186 c0 -7 7 -19 15 -26 8 -7 15 -23 15 -36 0 -13 6 -29 13
-36 12 -10 11 -16 -5 -32 -10 -11 -18 -27 -18 -35 1 -11 7 -7 21 12 11 15 30
27 42 27 46 0 51 15 18 49 -17 17 -31 37 -31 44 -1 18 -70 51 -70 33z"/>
<path d="M996 3154 c-7 -18 0 -34 16 -34 5 0 24 -6 41 -14 141 -64 176 -71
177 -31 0 9 -204 96 -221 95 -4 0 -10 -7 -13 -16z"/>
<path d="M1954 3144 c3 -8 6 -18 6 -20 0 -2 5 -4 10 -4 16 0 11 27 -6 34 -12
5 -15 2 -10 -10z"/>
<path d="M2345 3139 c-12 -19 5 -23 22 -6 16 16 16 17 1 17 -9 0 -20 -5 -23
-11z"/>
<path d="M4350 3106 c0 -19 -8 -26 -45 -36 -25 -7 -48 -16 -50 -21 -11 -16 15
-18 55 -4 53 19 60 19 60 -1 0 -9 5 -14 11 -12 14 5 14 5 -1 56 -14 46 -30 56
-30 18z"/>
<path d="M3812 3100 c7 -10 26 -20 42 -22 26 -3 33 -10 49 -52 17 -48 17 -49
-3 -63 -21 -15 -24 -54 -5 -59 6 -2 52 36 104 84 87 81 93 89 82 110 -11 21
-18 22 -146 22 -132 0 -135 -1 -123 -20z m208 -27 c0 -5 -16 -21 -35 -36 l-35
-28 -10 26 c-16 41 -13 45 35 45 25 0 45 -3 45 -7z"/>
<path d="M655 3073 c-9 -20 -14 -42 -11 -49 4 -10 91 -44 114 -44 14 0 43 83
33 93 -5 5 -14 -6 -22 -27 -13 -37 -35 -47 -45 -22 -3 8 -1 24 5 35 7 11 7 22
2 25 -5 4 -15 -7 -23 -24 -15 -36 -43 -41 -35 -7 2 12 8 30 12 40 4 10 3 17
-4 17 -6 0 -18 -17 -26 -37z"/>
<path d="M1683 3093 c-16 -6 -17 -33 -3 -33 6 0 27 -16 47 -35 38 -37 57 -43
69 -23 5 7 -8 25 -32 46 -47 41 -65 51 -81 45z"/>
<path d="M3065 3090 c-10 -16 14 -50 35 -50 11 0 34 14 52 30 l33 30 -32 -17
c-30 -17 -32 -17 -51 0 -21 20 -28 21 -37 7z"/>
<path d="M956 3043 c-9 -24 0 -30 75 -53 39 -12 67 -26 62 -30 -4 -4 -30 -12
-58 -18 -119 -26 -120 -26 -123 -55 -3 -21 1 -27 17 -27 11 0 30 -4 43 -9 65
-27 163 -50 171 -42 19 19 -3 40 -55 50 -57 12 -85 25 -72 34 5 3 46 15 92 27
73 20 82 25 82 45 0 20 -10 26 -72 45 -40 12 -92 28 -115 35 -36 12 -42 11
-47 -2z"/>
<path d="M1800 3053 c0 -5 7 -17 15 -27 8 -11 15 -28 15 -37 0 -11 9 -19 23
-21 18 -2 22 -10 24 -43 2 -22 -3 -48 -10 -57 -13 -16 -17 -16 -65 10 -28 15
-54 23 -58 19 -10 -9 25 -47 44 -47 7 0 27 -8 42 -17 24 -14 31 -14 44 -4 9 8
16 20 16 27 0 8 5 14 10 14 11 0 13 81 4 118 -4 12 -13 22 -20 22 -8 0 -19 11
-24 25 -7 18 -17 25 -35 25 -14 0 -25 -3 -25 -7z"/>
<path d="M2380 3041 c0 -23 18 -31 48 -20 36 14 28 39 -13 39 -28 0 -35 -4
-35 -19z"/>
<path d="M1630 3010 c-23 -5 -23 -7 -6 -13 11 -4 24 -3 30 3 14 14 5 18 -24
10z"/>
<path d="M2307 3014 c-13 -13 -7 -24 14 -24 11 0 19 5 17 12 -5 14 -22 21 -31
12z"/>
<path d="M4338 2992 c-36 -9 -58 -19 -58 -28 0 -17 0 -17 63 2 92 30 88 50 -5
26z"/>
<path d="M620 2955 c0 -9 17 -26 38 -38 l37 -22 -45 -5 c-36 -4 -45 -9 -45
-24 0 -15 12 -22 55 -32 68 -16 70 -16 70 -4 0 5 -19 15 -42 22 l-43 13 48 3
c55 4 63 23 17 42 -39 16 -51 35 -19 28 13 -3 32 -9 42 -13 11 -5 17 -3 17 7
0 8 -19 19 -45 26 -61 16 -85 15 -85 -3z"/>
<path d="M2305 2950 c6 -19 4 -22 -9 -17 -11 5 -16 1 -16 -13 0 -28 12 -31 40
-10 20 15 23 23 14 36 -17 28 -37 31 -29 4z"/>
<path d="M4059 2912 c-42 -45 -65 -61 -101 -71 -33 -10 -48 -19 -48 -31 0 -27
8 -28 61 -13 46 14 54 13 112 -5 34 -11 70 -23 80 -27 13 -5 17 -2 17 13 0 24
-16 38 -55 47 -70 16 -69 13 -26 61 26 30 37 51 34 64 -3 11 -9 20 -13 20 -4
0 -31 -26 -61 -58z"/>
<path d="M2831 2934 c0 -11 3 -14 6 -6 3 7 2 16 -1 19 -3 4 -6 -2 -5 -13z"/>
<path d="M3382 2928 c-7 -7 -12 -16 -12 -20 0 -15 15 -8 28 12 13 22 3 27 -16
8z"/>
<path d="M4328 2928 c-55 -15 -48 -32 10 -24 l47 7 -37 -32 c-21 -17 -38 -37
-38 -45 0 -17 -2 -17 77 -3 74 13 88 35 16 25 l-47 -6 37 38 c20 21 37 41 37
45 0 10 -57 7 -102 -5z"/>
<path d="M1587 2913 c-10 -9 -9 -33 1 -33 4 0 8 9 9 20 2 21 0 24 -10 13z"/>
<path d="M2945 2901 c-3 -10 -19 -21 -35 -25 -28 -5 -30 -9 -32 -56 -1 -27 -2
-58 -2 -67 -1 -10 6 -18 16 -18 9 0 26 -9 37 -19 31 -28 51 -6 22 23 -25 25
-29 102 -7 120 15 13 28 61 15 61 -4 0 -10 -8 -14 -19z m-48 -118 c-2 -16 -4
-5 -4 22 0 28 2 40 4 28 2 -13 2 -35 0 -50z"/>
<path d="M3438 2883 c7 -3 16 -2 19 1 4 3 -2 6 -13 5 -11 0 -14 -3 -6 -6z"/>
<path d="M2230 2866 c0 -9 5 -16 10 -16 6 0 10 4 10 9 0 6 -4 13 -10 16 -5 3
-10 -1 -10 -9z"/>
<path d="M1710 2861 c0 -6 5 -13 10 -16 6 -3 10 1 10 9 0 9 -4 16 -10 16 -5 0
-10 -4 -10 -9z"/>
<path d="M1600 2846 c0 -17 28 -41 37 -32 3 3 1 6 -5 6 -7 0 -12 9 -12 20 0
11 -4 20 -10 20 -5 0 -10 -6 -10 -14z"/>
<path d="M3110 2845 c33 -19 49 -19 24 0 -10 8 -26 14 -34 14 -9 0 -4 -6 10
-14z"/>
<path d="M3350 2840 c0 -5 5 -10 10 -10 6 0 10 5 10 10 0 6 -4 10 -10 10 -5 0
-10 -4 -10 -10z"/>
<path d="M2817 2794 c-10 -13 -15 -30 -11 -36 5 -7 7 -26 6 -43 -2 -18 1 -26
6 -20 14 15 30 89 23 107 -5 13 -9 12 -24 -8z"/>
<path d="M575 2769 c-4 -23 -3 -45 3 -51 11 -11 122 -28 122 -19 1 3 5 25 9
49 6 32 5 42 -5 42 -7 0 -14 -14 -16 -32 -2 -22 -9 -34 -21 -36 -16 -3 -18 2
-16 32 4 46 -12 51 -23 8 -12 -45 -34 -36 -30 11 5 50 -15 47 -23 -4z"/>
<path d="M1665 2790 c3 -5 8 -10 11 -10 2 0 4 5 4 10 0 6 -5 10 -11 10 -5 0
-7 -4 -4 -10z"/>
<path d="M4347 2782 c-21 -23 -22 -61 -1 -90 21 -31 59 -26 59 7 0 13 -6 26
-12 29 -7 2 -13 -4 -13 -13 0 -21 -24 -14 -28 9 -5 24 26 56 55 56 29 0 52
-42 35 -63 -15 -18 -3 -30 15 -16 18 15 17 49 -3 77 -20 28 -83 31 -107 4z"/>
<path d="M2002 2770 c-7 -11 -9 -20 -4 -20 10 0 32 22 32 32 0 15 -15 8 -28
-12z"/>
<path d="M1727 2760 c-3 -11 -2 -20 2 -20 3 0 12 9 19 20 10 16 10 20 -2 20
-7 0 -16 -9 -19 -20z"/>
<path d="M887 2764 c-4 -4 -7 -15 -7 -24 0 -13 19 -19 95 -30 101 -13 123 -28
110 -70 -10 -33 -36 -39 -125 -31 -58 5 -87 4 -92 -3 -21 -31 16 -43 139 -45
74 -1 83 1 97 21 39 55 27 138 -22 156 -15 6 -54 13 -87 17 -32 3 -68 8 -80
11 -11 3 -24 2 -28 -2z"/>
<path d="M1816 2757 c-11 -7 -37 -24 -58 -38 -33 -23 -35 -27 -18 -32 11 -3
30 3 45 15 14 10 29 17 34 14 5 -3 11 0 14 8 3 8 19 17 36 21 17 4 29 11 25
16 -7 13 -55 10 -78 -4z"/>
<path d="M2148 2763 c7 -3 16 -2 19 1 4 3 -2 6 -13 5 -11 0 -14 -3 -6 -6z"/>
<path d="M1550 2740 c0 -5 5 -10 10 -10 6 0 10 -10 10 -22 0 -11 11 -36 25
-54 28 -37 31 -60 11 -87 -19 -25 -73 -39 -80 -21 -6 16 -26 19 -26 5 0 -14
64 -51 89 -51 12 0 21 6 21 15 0 8 9 24 21 36 29 29 22 95 -15 143 -29 38 -66
64 -66 46z"/>
<path d="M2280 2711 c0 -23 25 -46 34 -32 4 6 -2 19 -14 31 -19 19 -20 19 -20
1z"/>
<path d="M3000 2705 c0 -14 6 -28 14 -31 8 -3 12 -12 10 -19 -3 -7 8 -20 27
-29 38 -19 63 -21 53 -4 -4 6 -11 25 -15 42 -5 24 -7 26 -8 9 -1 -13 -7 -23
-14 -23 -18 0 -47 32 -47 53 0 9 -4 19 -10 22 -6 4 -10 -5 -10 -20z"/>
<path d="M3940 2701 c0 -16 10 -26 35 -37 33 -14 35 -17 35 -64 0 -44 -3 -52
-25 -62 -16 -7 -25 -19 -25 -35 0 -12 3 -23 8 -23 4 0 58 26 120 57 92 47 112
61 112 79 0 32 9 28 -175 79 -27 7 -58 17 -67 20 -14 6 -18 2 -18 -14z m177
-75 c26 -5 22 -14 -11 -30 -42 -20 -56 -20 -56 -2 0 8 -3 22 -7 32 -6 15 -2
16 28 10 19 -4 39 -9 46 -10z"/>
<path d="M3265 2700 c-3 -5 -2 -10 4 -10 5 0 13 5 16 10 3 6 2 10 -4 10 -5 0
-13 -4 -16 -10z"/>
<path d="M560 2668 c0 -7 9 -24 20 -38 26 -34 25 -42 -6 -34 -20 5 -25 3 -22
-7 5 -15 43 -26 96 -28 38 -1 43 14 7 23 -34 9 -32 31 5 46 17 7 30 19 30 26
0 11 -8 11 -42 -3 -40 -16 -42 -16 -59 5 -19 25 -29 28 -29 10z"/>
<path d="M3425 2660 c-10 -11 -14 -20 -9 -20 5 0 15 9 22 20 7 11 11 20 9 20
-2 0 -12 -9 -22 -20z"/>
<path d="M3480 2658 c1 -13 7 -41 15 -63 16 -43 6 -67 -19 -46 -10 8 -16 9
-21 1 -3 -5 1 -10 9 -10 9 0 18 -11 22 -25 7 -30 15 -31 37 -7 23 25 21 70 -3
126 -22 49 -40 60 -40 24z"/>
<path d="M1501 2654 c0 -11 3 -14 6 -6 3 7 2 16 -1 19 -3 4 -6 -2 -5 -13z"/>
<path d="M2310 2656 c0 -9 49 -86 55 -86 10 0 5 19 -9 32 -8 8 -15 23 -17 33
-4 17 -29 35 -29 21z"/>
<path d="M2950 2651 c0 -5 5 -13 10 -16 6 -3 10 -2 10 4 0 5 -4 13 -10 16 -5
3 -10 2 -10 -4z"/>
<path d="M1838 2637 c-31 -12 -37 -27 -10 -27 18 1 52 22 52 34 0 8 -8 6 -42
-7z"/>
<path d="M4390 2643 c-59 -24 -49 -130 11 -121 18 2 24 9 24 27 0 14 -6 26
-13 29 -6 2 -12 -4 -12 -13 0 -21 -24 -14 -28 9 -5 25 17 46 48 46 38 0 56
-24 42 -54 -12 -28 -5 -41 15 -25 16 14 17 60 1 82 -14 18 -64 30 -88 20z"/>
<path d="M3392 2575 c0 -16 2 -22 5 -12 2 9 2 23 0 30 -3 6 -5 -1 -5 -18z"/>
<path d="M1540 2580 c-8 -5 -12 -11 -9 -14 2 -3 11 -1 19 4 8 5 12 11 9 14 -2
3 -11 1 -19 -4z"/>
<path d="M1790 2584 c0 -5 7 -18 15 -28 8 -11 15 -28 15 -38 0 -10 5 -18 10
-18 6 0 10 12 10 26 0 17 6 28 20 31 11 3 20 9 20 14 0 5 -12 4 -26 -2 -21 -7
-31 -6 -45 7 -11 10 -19 13 -19 8z"/>
<path d="M2970 2570 c-12 -23 2 -27 19 -6 8 9 8 16 2 20 -6 4 -15 -3 -21 -14z"/>
<path d="M2401 2544 c0 -11 3 -14 6 -6 3 7 2 16 -1 19 -3 4 -6 -2 -5 -13z"/>
<path d="M3416 2505 c4 -8 8 -15 10 -15 2 0 4 7 4 15 0 8 -4 15 -10 15 -5 0
-7 -7 -4 -15z"/>
<path d="M4405 2493 c-56 -8 -51 -23 7 -23 60 0 88 7 88 21 0 9 -39 10 -95 2z"/>
<path d="M1588 2463 c-19 -5 -25 -33 -7 -33 6 0 35 -21 66 -47 53 -46 86 -91
82 -116 -1 -6 1 -20 6 -30 5 -12 2 -22 -11 -31 -17 -13 -16 -15 12 -39 16 -15
32 -27 37 -27 17 0 5 -30 -13 -30 -11 0 -20 5 -20 10 0 6 -5 10 -12 10 -6 0
-1 -11 12 -25 26 -28 40 -32 40 -12 0 8 11 24 25 37 l25 23 -30 40 c-21 29
-28 47 -24 67 8 35 -23 95 -73 141 -35 32 -88 71 -95 68 -2 -1 -11 -3 -20 -6z"/>
<path d="M3420 2455 c-20 -25 -17 -82 9 -135 28 -57 27 -91 -3 -119 -25 -24
-46 -21 -46 5 0 32 -13 18 -65 -67 -38 -61 -60 -64 -62 -8 -1 27 3 42 13 46
21 8 17 23 -6 23 -11 0 -20 -7 -20 -15 0 -8 -4 -15 -9 -15 -5 0 -25 7 -44 15
-57 23 -126 19 -162 -10 -36 -30 -24 -34 12 -5 15 12 41 20 62 20 30 0 42 -7
70 -41 59 -71 87 -184 56 -226 -21 -28 -28 -10 -27 67 1 68 0 71 -28 85 -43
22 -53 19 -45 -15 6 -27 4 -30 -19 -30 -14 0 -26 -3 -26 -7 0 -5 17 -8 37 -8
34 0 37 -2 41 -34 4 -38 -14 -81 -35 -81 -16 0 -16 5 -1 29 6 10 8 27 4 37 -7
18 -8 18 -22 -1 -14 -18 -14 -79 0 -93 3 -2 26 1 52 7 45 12 48 11 76 -16 22
-21 28 -35 25 -53 -3 -14 -1 -33 5 -43 8 -16 6 -18 -14 -15 -20 3 -23 9 -23
44 0 35 -2 40 -20 36 -20 -3 -45 -43 -45 -69 0 -15 -43 -17 -70 -3 -13 7 -21
7 -25 0 -12 -19 -45 -11 -45 10 0 11 5 20 11 20 8 0 8 5 -1 15 -28 34 -52 10
-45 -46 6 -47 15 -52 79 -40 31 6 63 8 71 4 23 -8 12 -28 -14 -27 -14 0 -20
-4 -16 -13 3 -7 8 -19 11 -27 7 -18 -23 -28 -45 -14 -13 8 -27 8 -49 0 -17 -6
-41 -8 -54 -5 -21 6 -22 5 -9 -10 7 -9 24 -17 37 -17 12 0 25 -4 29 -9 11 -19
12 -190 1 -194 -7 -3 -7 -9 2 -20 7 -8 15 -44 17 -79 4 -82 3 -78 16 -78 9 0
10 22 6 75 -7 73 -6 75 16 75 12 0 32 3 45 6 19 5 22 2 22 -19 0 -14 4 -28 9
-31 13 -8 20 38 17 109 -3 72 -1 78 26 64 18 -10 20 -19 17 -87 -2 -50 1 -85
9 -100 18 -32 -11 -112 -40 -112 -15 0 -18 5 -12 23 6 20 4 19 -19 -7 -21 -25
-29 -27 -63 -22 -22 3 -52 2 -69 -3 -16 -5 -22 -10 -13 -10 9 -1 18 -7 21 -13
3 -10 8 -10 18 -2 18 14 134 17 157 5 15 -8 22 -4 34 17 24 40 27 71 33 260 2
95 8 178 12 185 12 19 8 226 -5 239 -7 7 -12 42 -12 86 0 70 2 75 31 99 17 15
35 37 40 50 7 18 16 23 43 23 22 0 45 9 65 26 27 22 31 32 31 75 0 48 -32 162
-51 186 -7 7 -6 12 2 15 7 2 10 10 8 17 -4 10 -8 9 -19 -4z m-167 -729 c3 -8
1 -30 -4 -50 -7 -27 -16 -36 -39 -41 -36 -8 -70 2 -70 20 0 8 16 22 36 31 20
9 41 25 47 36 14 22 23 23 30 4z m-151 -141 c-2 -15 0 -25 7 -25 6 0 11 -9 11
-20 0 -16 -7 -20 -30 -20 -28 0 -30 2 -30 39 0 22 5 42 13 44 26 11 34 6 29
-18z m163 15 c3 -5 1 -10 -4 -10 -6 0 -11 5 -11 10 0 6 2 10 4 10 3 0 8 -4 11
-10z m-125 -114 c0 -18 -33 -30 -60 -21 -37 12 -23 35 20 35 28 0 40 -4 40
-14z m10 -55 c0 -17 -51 -31 -71 -21 -30 16 -23 28 19 32 40 4 52 1 52 -11z"/>
<path d="M2422 2440 c0 -14 2 -19 5 -12 2 6 2 18 0 25 -3 6 -5 1 -5 -13z"/>
<path d="M3463 2443 c-15 -5 -17 -23 -4 -23 5 0 11 7 15 15 3 8 4 15 3 14 -1
0 -8 -3 -14 -6z"/>
<path d="M3336 2399 c-17 -15 -28 -31 -25 -34 3 -2 21 11 39 30 40 42 28 45
-14 4z"/>
<path d="M1871 2364 c0 -11 3 -14 6 -6 3 7 2 16 -1 19 -3 4 -6 -2 -5 -13z"/>
<path d="M1551 2293 c-1 -35 3 -63 8 -63 4 0 6 24 4 53 -7 77 -11 81 -12 10z"/>
<path d="M3265 2323 c-14 -15 -25 -32 -25 -37 0 -6 3 -6 8 0 4 5 18 21 31 37
32 35 20 35 -14 0z"/>
<path d="M1910 2253 c0 -13 29 -38 35 -31 3 3 -4 13 -15 23 -11 10 -20 13 -20
8z"/>
<path d="M3275 2240 c-3 -6 5 -10 19 -10 14 0 28 5 31 10 3 6 -5 10 -19 10
-14 0 -28 -4 -31 -10z"/>
<path d="M1595 2195 c17 -14 41 -25 54 -25 14 0 33 -7 43 -17 17 -15 18 -15
18 1 0 18 -45 40 -61 30 -5 -3 -26 4 -47 15 l-37 21 30 -25z"/>
<path d="M1888 2173 c6 -2 18 -2 25 0 6 3 1 5 -13 5 -14 0 -19 -2 -12 -5z"/>
<path d="M3290 2170 c0 -5 5 -10 10 -10 6 0 10 5 10 10 0 6 -4 10 -10 10 -5 0
-10 -4 -10 -10z"/>
<path d="M1963 2144 c-3 -9 -1 -25 5 -35 17 -27 15 -32 -12 -25 -30 7 -42 -7
-21 -24 20 -17 19 -36 -2 -45 -17 -6 -17 -7 0 -16 17 -10 17 -12 -3 -43 -19
-31 -19 -35 -4 -65 11 -22 21 -30 31 -27 15 6 113 -34 113 -46 0 -14 -22 -20
-33 -9 -6 6 -21 11 -34 11 -17 0 -23 -7 -28 -34 -6 -27 -12 -35 -36 -40 -21
-4 -29 -11 -29 -26 0 -26 18 -25 47 2 17 16 26 19 34 11 16 -16 4 -30 -44 -53
-23 -10 -36 -19 -29 -20 6 0 12 -7 12 -15 0 -18 -12 -19 -27 -4 -14 14 -116
-8 -107 -22 3 -6 15 -7 26 -3 13 4 18 2 14 -4 -11 -19 44 -45 82 -38 29 4 41
1 59 -16 26 -24 29 -38 9 -38 -31 0 -40 -30 -37 -128 2 -53 7 -104 12 -112 4
-8 9 -13 9 -10 2 8 9 71 13 110 2 19 6 36 10 38 27 9 30 -1 24 -102 -4 -56 -4
-106 0 -110 11 -11 12 -60 1 -73 -12 -14 0 -17 20 -5 7 5 10 15 7 24 -3 8 -2
33 4 56 5 25 5 44 0 48 -5 3 -9 14 -9 24 0 13 5 18 15 13 14 -5 15 5 9 76 -5
58 -4 81 5 81 16 0 15 137 -1 143 -9 4 -9 8 -3 14 38 31 47 171 9 156 -8 -3
-14 -1 -14 5 0 5 8 12 18 14 29 8 28 69 -3 98 -23 22 -25 30 -25 114 0 81 -3
95 -25 129 -27 39 -52 48 -62 21z m57 -180 c0 -34 -4 -53 -10 -49 -18 11 -12
105 7 105 2 0 3 -25 3 -56z m38 -248 c2 -16 1 -39 -2 -52 -5 -20 -12 -23 -51
-22 -25 0 -45 3 -45 7 0 3 16 16 35 29 25 16 35 30 35 48 0 35 24 26 28 -10z
m-187 -109 c-1 -12 -15 -9 -19 4 -3 6 1 10 8 8 6 -3 11 -8 11 -12z"/>
<path d="M1844 2044 c-17 -40 -15 -65 4 -72 8 -2 12 7 12 28 0 18 4 29 10 25
6 -4 10 7 10 24 0 42 -18 39 -36 -5z"/>
<path d="M2132 1985 c0 -16 2 -22 5 -12 2 9 2 23 0 30 -3 6 -5 -1 -5 -18z"/>
<path d="M1890 1960 c0 -5 5 -10 10 -10 6 0 10 5 10 10 0 6 -4 10 -10 10 -5 0
-10 -4 -10 -10z"/>
<path d="M2181 1924 c0 -11 3 -14 6 -6 3 7 2 16 -1 19 -3 4 -6 -2 -5 -13z"/>
<path d="M1770 1904 c0 -8 5 -12 10 -9 6 4 8 11 5 16 -9 14 -15 11 -15 -7z"/>
<path d="M3000 1910 c0 -5 5 -10 11 -10 5 0 7 5 4 10 -3 6 -8 10 -11 10 -2 0
-4 -4 -4 -10z"/>
<path d="M3050 1910 c0 -5 5 -10 11 -10 5 0 7 5 4 10 -3 6 -8 10 -11 10 -2 0
-4 -4 -4 -10z"/>
<path d="M1743 1865 c-3 -9 -3 -18 -1 -21 3 -3 8 4 11 16 6 23 -1 27 -10 5z"/>
<path d="M1850 1841 c0 -5 7 -12 16 -15 14 -5 15 -4 4 9 -14 17 -20 19 -20 6z"/>
<path d="M2406 1841 c-3 -5 1 -14 9 -21 13 -10 15 -9 15 9 0 21 -14 28 -24 12z"/>
<path d="M1742 1787 c2 -44 3 -45 29 -40 24 5 28 2 31 -23 2 -20 9 -30 24 -32
21 -3 22 4 15 85 -2 23 -32 44 -49 34 -12 -7 -22 -5 -34 6 -17 15 -18 13 -16
-30z"/>
<path d="M3070 1820 c0 -5 9 -10 20 -10 11 0 20 5 20 10 0 6 -9 10 -20 10 -11
0 -20 -4 -20 -10z"/>
<path d="M602 1792 c-39 -15 -70 -31 -68 -37 4 -11 20 -11 52 -1 17 5 24 1 34
-24 7 -16 16 -30 21 -30 13 0 20 18 9 25 -5 3 -10 17 -10 31 0 39 36 32 50
-11 11 -34 30 -48 30 -23 0 19 -32 98 -39 97 -3 0 -39 -12 -79 -27z"/>
<path d="M1900 1795 c7 -8 16 -15 21 -15 5 0 9 7 9 15 0 9 -9 15 -21 15 -18 0
-19 -2 -9 -15z"/>
<path d="M4320 1776 c0 -8 16 -20 38 -26 60 -20 58 -27 -10 -42 -42 -9 -63
-18 -63 -28 0 -18 136 -72 149 -59 13 12 5 18 -39 33 -50 17 -46 30 11 39 27
4 55 14 63 22 12 12 10 16 -15 26 -16 6 -42 17 -59 24 -59 25 -75 27 -75 11z"/>
<path d="M2202 1725 c0 -16 2 -22 5 -12 2 9 2 23 0 30 -3 6 -5 -1 -5 -18z"/>
<path d="M647 1662 c-56 -2 -77 -6 -74 -15 2 -7 13 -13 25 -15 13 -2 29 -17
38 -34 14 -27 14 -31 -2 -49 -11 -13 -14 -23 -8 -29 14 -14 127 102 122 125
-4 22 -3 22 -101 17z m63 -29 c0 -9 -32 -43 -40 -43 -15 0 -21 33 -8 42 16 9
48 11 48 1z"/>
<path d="M1750 1636 c0 -2 7 -7 16 -10 8 -3 12 -2 9 4 -6 10 -25 14 -25 6z"/>
<path d="M4233 1584 c-4 -11 14 -35 55 -77 58 -57 92 -71 63 -25 -19 30 2 74
40 82 48 9 33 23 -32 30 -95 9 -119 8 -126 -10z m97 -28 c0 -22 -19 -30 -35
-16 -22 18 -18 30 10 30 15 0 25 -6 25 -14z"/>
<path d="M1790 1500 c0 -51 2 -91 4 -89 7 7 9 169 2 176 -3 3 -6 -36 -6 -87z"/>
<path d="M2150 1566 c0 -9 5 -16 10 -16 6 0 10 4 10 9 0 6 -4 13 -10 16 -5 3
-10 -1 -10 -9z"/>
<path d="M2961 1564 c0 -11 3 -14 6 -6 3 7 2 16 -1 19 -3 4 -6 -2 -5 -13z"/>
<path d="M712 1517 c-58 -29 -79 -56 -36 -49 27 5 55 4 61 -2 2 -2 -8 -23 -23
-45 -20 -31 -24 -45 -16 -53 7 -7 13 -10 15 -7 1 2 15 24 31 47 28 45 35 47
90 26 19 -7 21 9 4 24 -7 5 -28 13 -45 17 -43 9 -50 22 -19 37 27 11 36 39 14
37 -7 -1 -41 -15 -76 -32z"/>
<path d="M4176 1475 c-28 -51 -29 -90 -2 -52 17 22 26 22 77 -8 85 -48 97 -23
14 27 -39 23 -54 37 -49 48 10 25 9 32 -1 36 -5 2 -23 -21 -39 -51z"/>
<path d="M1905 1480 c3 -5 10 -10 16 -10 5 0 9 5 9 10 0 6 -7 10 -16 10 -8 0
-12 -4 -9 -10z"/>
<path d="M2182 1435 c0 -16 2 -22 5 -12 2 9 2 23 0 30 -3 6 -5 -1 -5 -18z"/>
<path d="M2961 1444 c0 -11 3 -14 6 -6 3 7 2 16 -1 19 -3 4 -6 -2 -5 -13z"/>
<path d="M2810 1397 c0 -20 4 -37 10 -37 5 0 7 14 3 33 -8 45 -13 47 -13 4z"/>
<path d="M803 1379 c-56 -33 -69 -53 -54 -91 14 -36 37 -51 68 -43 38 9 114
56 111 67 -5 13 -13 10 -76 -20 -48 -24 -53 -25 -68 -10 -24 24 -12 44 45 75
28 16 51 34 51 41 0 19 -21 14 -77 -19z"/>
<path d="M4125 1391 c-3 -5 19 -27 50 -48 30 -21 55 -43 55 -49 0 -6 -9 -19
-19 -28 -19 -17 -22 -16 -73 18 -58 39 -68 43 -68 23 0 -15 37 -45 88 -71 37
-19 62 -11 88 29 22 34 11 58 -49 99 -56 39 -63 41 -72 27z"/>
<path d="M1867 1373 c-3 -5 -2 -15 2 -22 7 -10 10 -10 16 -1 4 6 3 16 -3 22
-5 5 -12 6 -15 1z"/>
<path d="M2202 1320 c0 -19 2 -27 5 -17 2 9 2 25 0 35 -3 9 -5 1 -5 -18z"/>
<path d="M3100 1320 c0 -16 2 -30 4 -30 2 0 11 -3 19 -6 22 -8 30 26 11 47
-24 27 -34 23 -34 -11z"/>
<path d="M3170 1304 c0 -8 5 -12 10 -9 6 4 8 11 5 16 -9 14 -15 11 -15 -7z"/>
<path d="M1822 1265 c0 -16 2 -22 5 -12 2 9 2 23 0 30 -3 6 -5 -1 -5 -18z"/>
<path d="M883 1237 c-35 -23 -63 -45 -63 -50 0 -13 52 -87 61 -87 14 0 10 23
-6 44 -23 30 -19 38 39 75 32 21 52 40 49 48 -7 18 -10 17 -80 -30z"/>
<path d="M4005 1220 c-7 -11 67 -144 87 -156 7 -5 9 3 5 27 -8 46 20 83 57 73
19 -4 26 -2 26 8 0 10 -25 23 -72 37 -83 24 -94 25 -103 11z m70 -30 c23 -9
24 -12 14 -32 l-11 -21 -19 24 c-30 39 -26 45 16 29z"/>
<path d="M2514 1164 c-1 -24 2 -41 7 -38 11 6 12 71 2 77 -5 3 -9 -15 -9 -39z"/>
<path d="M990 1183 c0 -3 7 -14 15 -23 13 -14 9 -20 -41 -60 -36 -29 -51 -47
-45 -53 7 -7 24 0 51 19 23 16 47 33 55 39 10 6 20 4 33 -9 37 -33 34 3 -4 49
-32 39 -64 58 -64 38z"/>
<path d="M1840 1174 c0 -8 5 -12 10 -9 6 3 10 10 10 16 0 5 -4 9 -10 9 -5 0
-10 -7 -10 -16z"/>
<path d="M2231 1144 c-1 -36 4 -56 15 -65 10 -8 13 -21 9 -37 -6 -23 -4 -23
20 7 30 35 28 66 -5 56 -20 -6 -23 0 -33 65 -3 14 -5 2 -6 -26z"/>
<path d="M1961 1164 c0 -11 3 -14 6 -6 3 7 2 16 -1 19 -3 4 -6 -2 -5 -13z"/>
<path d="M2309 1133 c-13 -16 -12 -17 4 -4 16 13 21 21 13 21 -2 0 -10 -8 -17
-17z"/>
<path d="M2344 1099 c-3 -6 -1 -16 5 -22 15 -15 14 -94 -1 -103 -7 -5 -25 -7
-41 -6 -17 2 -26 -2 -22 -8 9 -14 68 -13 87 3 9 6 19 35 23 63 6 47 4 52 -19
67 -17 11 -27 13 -32 6z"/>
<path d="M2520 1081 c0 -18 18 -21 30 -6 10 13 9 15 -9 15 -11 0 -21 -4 -21
-9z"/>
<path d="M2600 1084 c0 -3 9 -17 20 -31 11 -14 20 -39 20 -55 0 -17 4 -27 10
-23 27 17 2 115 -30 115 -11 0 -20 -3 -20 -6z"/>
<path d="M3886 1081 c-3 -5 21 -33 55 -61 l60 -53 35 34 c32 31 44 59 25 59
-5 0 -16 -11 -25 -25 -22 -34 -35 -32 -81 15 -39 40 -59 48 -69 31z"/>
<path d="M1031 1031 c-70 -30 -96 -59 -44 -48 40 8 74 -25 66 -65 -10 -53 18
-28 53 47 49 105 38 115 -75 66z m59 -36 c-14 -27 -33 -28 -38 -3 -3 13 37 41
47 32 2 -2 -2 -15 -9 -29z"/>
<path d="M3816 1011 l-39 -39 53 -56 c29 -31 56 -56 60 -56 11 0 90 71 90 81
0 18 -27 8 -55 -21 -27 -28 -30 -29 -47 -13 -18 16 -17 18 14 50 39 40 29 57
-12 18 -17 -17 -35 -25 -44 -22 -23 9 -20 20 14 52 17 16 30 32 30 37 0 19
-29 5 -64 -31z"/>
<path d="M1159 946 c-10 -20 -8 -31 11 -61 17 -28 20 -39 11 -48 -17 -17 -45
4 -49 37 -4 34 -32 35 -32 1 0 -31 41 -75 69 -75 24 0 51 25 51 48 0 9 -9 31
-20 47 -26 39 -25 47 2 43 14 -2 24 -12 28 -27 8 -33 30 -39 30 -9 0 30 -38
68 -68 68 -14 0 -27 -9 -33 -24z"/>
<path d="M2550 960 c0 -5 15 -10 34 -10 19 0 38 5 41 10 4 6 -10 10 -34 10
-23 0 -41 -4 -41 -10z"/>
<path d="M3747 943 c-4 -3 -10 -28 -13 -55 -7 -53 -13 -58 -32 -28 -12 19 -42
28 -42 13 0 -16 92 -123 106 -123 18 0 18 5 -1 34 -14 21 -12 56 4 56 3 0 19
-7 35 -15 30 -16 56 -14 56 4 0 5 -23 17 -51 26 l-51 17 5 39 c5 36 -1 48 -16
32z"/>
<path d="M1311 795 c-23 -30 -44 -61 -47 -69 -9 -24 14 -27 30 -4 15 21 16 21
56 3 39 -17 41 -17 60 0 31 28 25 59 -19 94 l-39 31 -41 -55z m89 -31 c0 -22
-20 -26 -46 -9 -25 16 -25 17 -8 36 16 18 18 18 36 3 10 -10 18 -23 18 -30z"/>
<path d="M3560 800 c0 -6 16 -34 35 -62 37 -56 34 -78 -10 -78 -17 0 -32 13
-54 50 -20 33 -35 48 -45 44 -12 -5 -9 -15 16 -55 17 -28 41 -57 54 -66 22
-14 26 -13 56 4 45 26 47 58 7 121 -29 47 -59 68 -59 42z"/>
<path d="M1424 696 c-23 -35 -39 -68 -35 -73 7 -10 88 -63 96 -63 3 0 5 7 5
15 0 8 -3 15 -7 15 -5 0 -21 10 -36 23 -25 20 -27 24 -14 41 14 19 15 19 46
-4 22 -15 36 -19 43 -12 6 6 -2 17 -26 31 -22 14 -33 27 -29 37 7 19 20 18 59
-6 20 -13 35 -17 39 -10 5 8 -78 70 -94 70 -4 0 -25 -29 -47 -64z"/>
<path d="M3426 717 c-17 -13 -18 -17 -3 -65 8 -29 12 -52 8 -52 -4 0 -22 16
-41 35 -36 37 -49 42 -67 24 -13 -13 54 -139 75 -139 18 0 15 17 -13 58 -38
55 -30 61 18 14 65 -64 83 -53 52 33 -17 47 -17 45 -7 45 4 0 18 -20 30 -45
12 -25 29 -45 37 -45 8 0 15 3 15 6 0 6 -81 144 -84 144 -1 0 -10 -6 -20 -13z"/>
<path d="M1556 623 c-49 -92 -37 -127 15 -43 8 13 11 12 24 -4 8 -11 15 -34
15 -52 0 -18 5 -36 10 -39 19 -12 28 5 20 40 -7 30 -5 35 11 35 22 0 52 41 44
61 -4 12 -87 69 -100 69 -2 0 -20 -30 -39 -67z m79 15 c29 -13 34 -48 7 -48
-29 0 -54 23 -46 43 7 20 6 20 39 5z"/>
<path d="M1702 549 c-18 -39 -29 -75 -26 -80 9 -16 22 -10 30 14 4 12 17 44
30 71 22 46 24 66 5 66 -4 0 -22 -32 -39 -71z"/>
<path d="M3197 603 c-2 -5 11 -40 30 -80 l35 -72 49 24 c27 14 49 30 49 35 0
14 -16 12 -51 -6 -17 -8 -32 -14 -33 -12 -1 2 -14 29 -29 61 -25 53 -40 68
-50 50z"/>
<path d="M1775 578 c-33 -91 -44 -133 -36 -141 7 -7 14 -1 22 16 19 43 59 47
59 6 0 -28 18 -59 34 -59 11 0 11 9 -1 50 -15 53 -8 80 22 80 7 0 18 7 25 15
19 23 -28 20 -65 -5 -48 -32 -54 -25 -30 33 5 12 2 17 -9 17 -9 0 -19 -6 -21
-12z"/>
<path d="M3140 582 c0 -14 50 -136 60 -146 17 -17 22 21 7 56 -8 18 -20 48
-27 66 -11 28 -40 46 -40 24z"/>
<path d="M3030 530 c0 -10 5 -31 12 -45 19 -42 1 -40 -47 4 -37 34 -49 40 -60
31 -10 -8 -11 -17 -5 -28 5 -10 16 -43 25 -74 8 -32 21 -58 27 -58 10 0 7 35
-8 90 -7 21 -2 19 44 -19 73 -62 86 -52 55 43 -23 73 -43 98 -43 56z"/>
<path d="M1926 464 c-36 -50 -45 -69 -36 -78 8 -8 14 -7 21 7 17 29 89 15 89
-17 0 -8 7 -16 15 -20 18 -7 19 11 4 105 -15 89 -30 90 -93 3z m64 -4 c0 -23
-4 -30 -20 -30 -24 0 -26 17 -3 42 21 24 23 23 23 -12z"/>
<path d="M2077 468 c-19 -106 -20 -131 -6 -126 8 3 15 13 17 24 12 79 21 82
46 14 22 -60 51 -69 59 -17 17 96 19 127 8 127 -13 0 -17 -9 -26 -62 -3 -21
-9 -38 -13 -38 -4 0 -16 25 -27 55 -22 65 -49 75 -58 23z"/>
<path d="M2807 447 c-4 -29 -10 -67 -13 -85 -5 -25 -3 -32 10 -32 9 0 16 7 16
15 0 33 72 47 89 18 7 -13 13 -15 21 -7 17 17 -67 142 -96 143 -18 1 -22 -6
-27 -52z m57 -13 c10 -26 7 -34 -14 -34 -15 0 -20 7 -20 25 0 28 24 34 34 9z"/>
<path d="M2637 473 c-25 -4 -27 -8 -23 -36 3 -18 8 -53 11 -79 l6 -48 40 0
c59 0 93 37 86 93 -9 65 -38 82 -120 70z m84 -50 c14 -39 8 -66 -21 -80 -32
-16 -41 -6 -50 51 -8 53 -6 56 32 56 22 0 31 -6 39 -27z"/>
<path d="M2248 396 c-26 -52 -34 -77 -26 -82 7 -4 18 2 26 14 21 32 65 29 90
-5 32 -44 35 -22 9 63 -32 109 -50 110 -99 10z m66 8 c8 -32 4 -38 -23 -29
-17 5 -19 9 -9 31 14 31 24 31 32 -2z"/>
<path d="M2400 385 c0 -50 4 -85 10 -85 6 0 10 23 10 50 0 28 4 50 9 50 4 0
22 -22 39 -50 47 -76 62 -68 62 35 0 69 -3 85 -15 85 -11 0 -15 -12 -15 -50 0
-27 -3 -50 -7 -50 -5 0 -21 23 -38 50 -43 74 -55 66 -55 -35z"/>
</g>
</svg>
